<svg xmlns="http://www.w3.org/2000/svg" viewBox="0 0 64 64" fill="none">
  <!-- Background with gradient -->
  <rect width="64" height="64" rx="16" fill="url(#gradient)"/>
  <defs>
    <linearGradient id="gradient" x1="0" y1="0" x2="64" y2="64">
      <stop offset="0%" stop-color="#3b82f6"/>
      <stop offset="100%" stop-color="#8b5cf6"/>
    </linearGradient>
  </defs>
  
  <!-- Main code symbol - simplified brackets -->
  <path d="M20 18L32 12L44 18V26L32 32L20 26V18Z" fill="white" opacity="0.95"/>
  <path d="M20 26L32 32L44 26V34L32 40L20 34V26Z" fill="white" opacity="0.8"/>
  <path d="M20 34L32 40L44 34V42L32 48L20 42V34Z" fill="white" opacity="0.65"/>
  
  <!-- Data visualization dots -->
  <circle cx="32" cy="20" r="2" fill="#3b82f6"/>
  <circle cx="32" cy="28" r="2" fill="#6366f1"/>
  <circle cx="32" cy="36" r="2" fill="#8b5cf6"/>
  
  <!-- Accent elements -->
  <rect x="48" y="20" width="3" height="8" rx="1.5" fill="white" opacity="0.7"/>
  <rect x="48" y="36" width="3" height="8" rx="1.5" fill="white" opacity="0.7"/>
</svg>

